HIERARCHY
ROOT Hips
{
	OFFSET 0.000000 0.000000 0.000000
	CHANNELS 6 Xposition Yposition Zposition Zrotation Yrotation Xrotation 
	JOINT LHipJoint
	{
		OFFSET 0.000000 0.000000 0.000000
		CHANNELS 3 Zrotation Yrotation Xrotation
		JOINT LeftUpLeg
		{
			OFFSET 1.363060 -1.794630 0.839290
			CHANNELS 3 Zrotation Yrotation Xrotation
			JOINT LeftLeg
			{
				OFFSET 2.448110 -6.726130 0.000000
				CHANNELS 3 Zrotation Yrotation Xrotation
				JOINT LeftFoot
				{
					OFFSET 2.562200 -7.039590 0.000000
					CHANNELS 3 Zrotation Yrotation Xrotation
					JOINT LeftToeBase
					{
						OFFSET 0.157640 -0.433110 2.322550
						CHANNELS 3 Zrotation Yrotation Xrotation
						End Site
						{
							OFFSET 0.000000 0.000000 0.000000
						}
					}
				}
			}
		}
	}
	JOINT RHipJoint
	{
		OFFSET 0.000000 0.000000 0.000000
		CHANNELS 3 Zrotation Yrotation Xrotation
		JOINT RightUpLeg
		{
			OFFSET -1.305520 -1.794630 0.839290
			CHANNELS 3 Zrotation Yrotation Xrotation
			JOINT RightLeg
			{
				OFFSET -2.542530 -6.985550 0.000000
				CHANNELS 3 Zrotation Yrotation Xrotation
				JOINT RightFoot
				{
					OFFSET -2.568260 -7.056230 0.000000
					CHANNELS 3 Zrotation Yrotation Xrotation
					JOINT RightToeBase
					{
						OFFSET -0.164730 -0.452590 2.363150
						CHANNELS 3 Zrotation Yrotation Xrotation
						End Site
						{
							OFFSET 0.000000 0.000000 0.000000
						}
					}
				}
			}
		}
	}
}
MOTION
Frames: 28
Frame Time: 0.008333
1.435518 17.437014 -0.779830 -2.774385 87.387143 11.906972 -10.815676 1.454347 -0.430238 -7.832102 6.371453 -9.492809 -2.371236 -0.715768 5.240042 0.404002 1.922249 -3.990212 0.163200 0.000000 -37.213600 9.635218 0.339861 -1.621726 8.475749 -6.125566 -40.099670 0.983439 -3.352047 43.619326 -0.838592 -3.243714 0.526911 -0.731700 -0.000000 -46.126000
1.652919 17.413368 -0.755739 1.627170 87.771674 16.234277 -10.886136 1.521987 -0.605588 -7.761551 7.091462 -8.345302 -2.433547 -0.741948 4.667670 0.312267 1.202918 -3.978772 0.124800 0.000001 -37.972400 9.525785 0.416687 -1.427731 8.203535 -5.951653 -40.376398 1.184785 -3.137073 40.481169 -0.822438 -3.240812 1.135765 -0.811700 0.000000 -46.483200
1.869570 17.383470 -0.728396 10.023303 88.186301 24.555080 -10.939190 1.563798 -0.792903 -7.705031 7.729054 -7.177930 -2.497443 -0.774149 4.173806 0.228538 0.511863 -4.045594 0.088601 0.000000 -38.883101 9.432037 0.472369 -1.223587 7.828205 -5.814513 -40.572348 1.377692 -2.905559 37.172022 -0.815419 -3.307768 1.894436 -0.916700 0.000000 -46.559000
2.085957 17.347699 -0.698222 23.733383 88.629954 38.200527 -10.923331 1.589801 -0.991417 -7.633217 8.263319 -5.997000 -2.561404 -0.811148 3.748810 0.155048 -0.134059 -4.179814 0.057600 0.000000 -39.967901 9.392510 0.522425 -1.000373 7.386552 -5.706254 -40.701880 1.560369 -2.654354 33.697121 -0.814476 -3.422701 2.763370 -1.041900 0.000000 -46.340400
2.302569 17.306521 -0.665746 42.228633 88.988500 56.648210 -10.801551 1.650170 -1.189183 -7.521392 8.699585 -4.819228 -2.620843 -0.836715 3.364160 0.096941 -0.703558 -4.366599 0.033600 0.000000 -41.230000 9.446067 0.633200 -0.760865 6.923752 -5.587716 -40.761258 1.722934 -2.364292 30.075127 -0.808361 -3.541652 3.709328 -1.178000 0.000000 -45.888700
2.519813 17.260581 -0.631370 61.066590 89.112313 75.456320 -10.657916 1.763874 -1.366224 -7.401543 9.046879 -3.657942 -2.670032 -0.840015 3.001228 0.054575 -1.176375 -4.578419 0.016800 -0.000000 -42.645600 9.538221 0.821781 -0.521449 6.437415 -5.444591 -40.764082 1.865143 -2.023729 26.332835 -0.782872 -3.609201 4.700178 -1.312200 0.000000 -45.326000
2.738083 17.210588 -0.595506 75.701939 89.020317 90.077195 -10.563286 1.890762 -1.522103 -7.308453 9.295825 -2.504562 -2.708430 -0.831384 2.670089 0.022104 -1.564261 -4.778286 0.006100 0.000001 -44.167900 9.608584 1.028918 -0.285040 5.903288 -5.315854 -40.735746 2.000357 -1.646066 22.480922 -0.732657 -3.586076 5.697830 -1.427100 -0.000000 -44.805500
2.957744 17.157207 -0.558360 85.470252 88.796500 99.841785 -10.507164 2.007806 -1.665250 -7.244156 9.444038 -1.350305 -2.737998 -0.818168 2.382157 -0.004086 -1.879743 -4.938438 0.000000 0.000000 -45.735101 9.658612 1.225536 -0.049061 5.323383 -5.232267 -40.684004 2.135284 -1.243584 18.536032 -0.654640 -3.437761 6.667193 -1.501901 0.000000 -44.478301
3.178974 17.101082 -0.520043 91.668544 88.495364 106.035566 -10.466864 2.115127 -1.800351 -7.205253 9.501568 -0.186266 -2.760372 -0.800150 2.141938 -0.025250 -2.128329 -5.039726 -0.003400 -0.000000 -47.282001 9.703150 1.414051 0.181497 4.711052 -5.212921 -40.602406 2.269494 -0.823942 14.542280 -0.544386 -3.125143 7.573320 -1.513100 0.000000 -44.462300
3.402032 17.042781 -0.480539 95.587562 88.145840 109.935162 -10.429715 2.218340 -1.930069 -7.188575 9.491071 0.990236 -2.777424 -0.774624 1.960778 -0.042649 -2.321169 -5.073165 -0.005500 -0.000000 -48.755701 9.749721 1.603611 0.395818 4.084753 -5.275693 -40.488637 2.400941 -0.397231 10.578402 -0.398422 -2.608907 8.373976 -1.437200 -0.000000 -44.818100
3.626922 16.982815 -0.439768 98.054910 87.763751 112.348509 -10.389038 2.322238 -2.055287 -7.191925 9.425630 2.196178 -2.789382 -0.739527 1.837577 -0.056121 -2.455943 -5.032819 -0.007500 -0.000000 -50.118900 9.798589 1.802509 0.577374 3.469501 -5.442016 -40.344231 2.528282 0.021541 6.759645 -0.215420 -1.849512 9.012860 -1.252800 0.000001 -45.533400
3.853735 16.921795 -0.397819 99.630593 87.364472 113.822224 -10.343024 2.429518 -2.176417 -7.205924 9.326023 3.432475 -2.796665 -0.693160 1.783677 -0.066081 -2.539644 -4.924928 -0.010000 0.000000 -51.360600 9.844503 2.014274 0.713503 2.900415 -5.722345 -40.186525 2.651945 0.415985 3.222470 0.001244 -0.825158 9.423373 -0.951200 -0.000000 -46.523200
4.082674 16.860382 -0.354819 100.671634 86.966225 114.712494 -10.293275 2.539905 -2.294117 -7.213359 9.214451 4.682162 -2.799386 -0.634507 1.818613 -0.072993 -2.582954 -4.766053 -0.013100 -0.000000 -52.496000 9.879204 2.236874 0.800360 2.413002 -6.102629 -40.044981 2.772526 0.772738 0.098831 0.241700 0.447653 9.540441 -0.547300 0.000000 -47.643099
4.313864 16.799365 -0.310996 101.381860 86.588856 115.231588 -10.243588 2.651126 -2.407071 -7.195409 9.101495 5.921337 -2.796220 -0.563658 1.957253 -0.076245 -2.585977 -4.574589 -0.016500 -0.000000 -53.563700 9.894466 2.461576 0.846021 2.027495 -6.535444 -39.943062 2.887704 1.084511 -2.514941 0.488823 1.892766 9.323563 -0.087700 -0.000000 -48.714600
4.547481 16.739576 -0.266583 101.861325 86.251097 115.501397 -10.198330 2.759038 -2.514142 -7.136870 8.988807 7.114215 -2.785609 -0.481380 2.213609 -0.074713 -2.543856 -4.370619 -0.019400 0.000000 -54.625100 9.885536 2.675733 0.867892 1.738793 -6.944645 -39.896616 2.991344 1.348948 -4.568538 0.720525 3.374681 8.770209 0.357200 -0.000000 -49.561200
4.783776 16.681773 -0.221729 102.146259 85.967353 115.582797 -10.161434 2.859874 -2.611365 -7.031972 8.861601 8.230251 -2.765015 -0.389112 2.590063 -0.066201 -2.438268 -4.165206 -0.020799 -0.000000 -55.761399 9.852197 2.863718 0.887826 1.517263 -7.241881 -39.903528 3.074822 1.565906 -6.056136 0.914120 4.720871 7.924527 0.714500 -0.000000 -50.053600
5.023172 16.626497 -0.176468 102.249214 85.745578 115.517908 -10.136099 2.950651 -2.694708 -6.882609 8.703504 9.232498 -2.732826 -0.287980 3.092783 -0.049078 -2.255765 -3.963689 -0.019400 -0.000000 -57.069400 9.798218 3.011094 0.926607 1.321616 -7.346906 -39.963142 3.130485 1.734417 -6.992846 1.051015 5.762681 6.862623 0.933100 -0.000000 -50.123900
5.265942 16.574144 -0.130890 102.158005 85.590141 115.314267 -10.124599 3.029804 -2.757877 -6.698195 8.486202 10.103792 -2.686181 -0.179160 3.711489 -0.021016 -1.972607 -3.752871 -0.013600 0.000000 -58.651900 9.728227 3.105035 0.998993 1.113013 -7.199319 -40.067655 3.152770 1.851602 -7.405029 1.118177 6.364685 5.687077 0.996300 -0.000001 -49.785700
5.512535 16.524938 -0.084928 101.860388 85.502090 114.976145 -10.129234 3.097434 -2.794886 -6.488473 8.189068 10.825926 -2.622855 -0.062940 4.443013 0.019169 -1.576864 -3.509699 -0.001400 -0.000001 -60.603000 9.646119 3.136321 1.114784 0.865461 -6.763220 -40.223876 3.138851 1.912984 -7.313724 1.107829 6.443226 4.505975 0.918300 0.000000 -49.088500
5.763177 16.478961 -0.038967 101.335187 85.488722 114.486703 -10.155032 3.153399 -2.805280 -6.248913 7.810994 11.394651 -2.540020 0.061379 5.281992 0.070900 -1.073747 -3.197728 0.019400 0.000000 -62.996900 9.550913 3.099479 1.273212 0.582740 -6.029027 -40.443627 3.088995 1.912753 -6.732096 1.016987 5.976727 3.427604 0.732600 -0.000000 -48.105599
6.018145 16.436292 0.007137 100.554132 85.549188 113.818521 -10.205606 3.200996 -2.785451 -5.977036 7.359257 11.793233 -2.436108 0.195224 6.243418 0.132356 -0.481618 -2.778256 0.051600 0.000000 -65.850600 9.442168 2.993235 1.473886 0.278930 -5.012661 -40.759231 3.003680 1.845893 -5.668382 0.846608 4.994563 2.554787 0.472500 -0.000000 -46.903001
6.277388 16.396890 0.052707 99.507306 85.695071 112.946740 -10.290868 3.241806 -2.741236 -5.639520 6.877774 12.017031 -2.308647 0.341083 7.348203 0.198421 0.149533 -2.207833 0.097300 0.000000 -69.132200 9.312453 2.819988 1.703091 0.008146 -3.760658 -41.194608 2.887759 1.708499 -4.130401 0.605017 3.586778 1.980785 0.162200 -0.000000 -45.545301
6.540650 16.360673 0.097382 98.163567 85.929160 111.818411 -10.418698 3.279238 -2.677365 -5.207077 6.414512 12.061180 -2.155873 0.501108 8.625478 0.263842 0.766802 -1.445150 0.157300 0.000000 -72.731000 9.156216 2.588230 1.942117 -0.165083 -2.354992 -41.773941 2.748593 1.498941 -2.128156 0.310747 1.896027 1.779748 -0.187400 -0.000000 -44.112700
6.807421 16.327547 0.140598 96.467791 86.249999 110.349422 -10.596199 3.316375 -2.600396 -4.652940 6.021276 11.928454 -1.976187 0.676665 10.104329 0.324206 1.318298 -0.452806 0.230000 -0.000000 -76.469700 8.969442 2.311769 2.165475 -0.170275 -0.904936 -42.501949 2.596766 1.219571 0.311840 -0.006732 0.101830 1.995699 -0.572800 0.000000 -42.703000
7.076908 16.297369 0.181723 94.310335 86.652217 108.399777 -10.830179 3.354797 -2.517911 -3.954450 5.748997 11.623022 -1.768366 0.867485 11.811966 0.377413 1.759232 0.795617 0.309500 0.000000 -80.121300 8.750131 2.006907 2.347172 0.051741 0.478307 -43.354030 2.444213 0.879206 3.132019 -0.312416 -1.614557 2.623521 -0.988000 0.000000 -41.354200
7.347905 16.270037 0.220894 91.197000 87.106945 105.452185 -11.117501 3.398062 -2.433031 -3.138662 5.610144 11.161478 -1.533893 1.070760 13.752056 0.429179 2.098717 2.316713 0.391600 -0.000000 -83.412201 8.505942 1.695454 2.467037 0.510858 1.699600 -44.285852 2.298160 0.492451 6.244993 -0.572949 -3.096924 3.607516 -1.412900 0.000000 -40.194500
7.619194 16.245641 0.258019 85.749124 87.579382 100.118032 -11.462685 3.451843 -2.349575 -2.234210 5.619601 10.547276 -1.278305 1.283436 15.925307 0.488709 2.358337 4.100668 0.470800 0.000000 -86.066900 8.240852 1.400373 2.512264 1.191166 2.712569 -45.233596 2.164589 0.083109 9.532288 -0.765857 -4.246290 4.828094 -1.812800 -0.000000 -39.224900
7.889340 16.224451 0.293033 71.640320 87.980304 86.075615 -11.886195 3.561506 -2.264489 -1.285103 5.809246 9.770516 -1.028878 1.514619 18.313821 0.571701 2.586181 6.104285 0.543800 -0.000000 -87.823300 7.965361 1.181408 2.464621 2.075346 3.544108 -46.123095 2.050323 -0.311484 12.872290 -0.876111 -5.015752 6.130112 -2.147100 -0.000000 -38.400700
